<?xml version="1.0" encoding="UTF-8" standalone="no"?>
<!-- Created with Inkscape (http://www.inkscape.org/) -->

<svg
   width="28.240337mm"
   height="25.422867mm"
   viewBox="0 0 28.240337 25.422867"
   version="1.1"
   id="svg5"
   xmlns="http://www.w3.org/2000/svg"
   xmlns:svg="http://www.w3.org/2000/svg">
  <defs
     id="defs2" />
  <g
     id="layer1"
     transform="translate(-34.268742,-140.98478)">
    <path
       style="fill:#00aad4;stroke-width:0.264583"
       id="auyerlogo"
       d="m 34.268756,142.26475 c 0.69487,4.05228 0.924489,8.1672 1.159058,12.26633 0.118898,2.50149 0.219617,5.00523 0.2296,7.50995 0.0021,0.54294 0.0086,1.08639 -0.01651,1.62876 -0.04449,0.96211 0.03596,1.03362 -0.175744,0.68795 1.110096,0.37268 2.167226,1.25404 3.330286,1.11804 0.495724,-0.058 -0.124222,-0.99089 -0.160821,-1.48865 -0.04975,-0.67656 -0.08474,-1.35455 -0.09812,-2.03281 -0.03145,-1.59464 0.01392,-3.37475 0.161414,-4.95912 0.08478,-0.91071 0.227965,-1.81503 0.341945,-2.72255 0.188103,-0.88487 0.319014,-1.78386 0.564309,-2.6546 0.811609,-2.88105 2.301912,-5.86371 4.883139,-7.55233 0.477811,-0.31258 1.026642,-0.50004 1.539963,-0.75006 1.306721,-0.25317 1.634513,-0.48914 2.932326,-0.0885 0.430829,0.13299 1.646423,0.71717 1.209596,0.60545 -0.752004,-0.19233 -1.407753,-1.00827 -2.167755,-0.85049 -0.427609,0.0888 0.436462,0.76545 0.560779,1.18411 0.131408,0.44254 0.1319,0.9138 0.197853,1.3707 -0.04474,0.49751 -0.04458,1.00111 -0.134215,1.49252 -0.199629,1.09436 -0.636942,2.22682 -1.09233,3.23213 -0.845939,1.86748 -1.937345,3.61067 -2.999391,5.35858 -0.972457,1.57871 -2.033529,3.10217 -2.983825,4.69477 -0.300008,0.50279 -0.892752,1.50329 -1.072901,2.11744 -0.07142,0.2435 -0.05828,0.50416 -0.08742,0.75625 1.09886,1.85419 0.679143,1.40213 4.733526,2.64343 0.612944,0.18766 1.280297,-0.0689 1.919515,-0.11707 0.832945,-0.0627 1.664488,-0.14281 2.496627,-0.21543 4.116633,-0.35928 1.578557,-0.15385 5.762998,-0.47377 2.398614,-0.18135 4.80243,-0.25476 7.206424,-0.31046 0,0 -2.77499,-1.99774 -2.77499,-1.99774 v 0 c -2.326563,0.15132 -4.652639,0.30972 -6.977374,0.48733 -1.433566,0.10472 -4.410633,0.32939 -5.850837,0.40597 -0.873678,0.0464 -1.747814,0.0985 -2.622714,0.10296 -0.691769,0.004 -2.062729,-0.77067 -2.073826,-0.079 -0.0035,0.21679 3.278677,2.48332 1.549988,1.28126 -0.01699,-0.22891 -0.08714,-0.46005 -0.05098,-0.68672 0.09958,-0.62413 0.626661,-1.64591 0.891358,-2.14991 0.860911,-1.63924 1.872646,-3.19404 2.836134,-4.7729 1.093605,-1.74999 2.229586,-3.48446 3.122761,-5.34964 0.490101,-1.02346 0.967105,-2.16599 1.209971,-3.28275 0.110684,-0.50895 0.132784,-1.0332 0.199176,-1.5498 -0.05673,-0.61662 -0.0716,-2.23822 -0.636788,-2.7515 -0.453417,-0.41177 -3.56415,-2.91128 -5.239912,-3.27523 -0.475364,-0.10324 -0.97259,-0.14082 -1.456486,-0.0911 -0.522282,0.0537 -1.016109,0.26487 -1.524162,0.3973 -0.509762,0.28426 -1.057796,0.50874 -1.529286,0.85277 -2.504202,1.8272 -3.979328,4.94736 -4.791059,7.85246 -0.245631,0.87908 -0.380386,1.78544 -0.570577,2.67817 -0.132736,0.90561 -0.293589,1.80754 -0.398208,2.71683 -0.262313,2.27983 -0.318416,4.58443 -0.375219,6.87632 -0.01164,0.47015 -0.336407,1.05261 -0.03134,1.41054 0.938662,1.10129 2.309241,1.74447 3.463862,2.61671 7.93e-4,-0.61356 0.0085,0.17032 -0.107858,-1.15566 -0.04969,-0.56632 -0.0862,-1.13374 -0.122814,-1.70105 -0.16337,-2.5317 -0.274807,-5.06647 -0.398269,-7.6003 -0.170903,-3.71958 -0.381691,-7.4414 -0.468702,-11.16426 -0.006,-0.25831 -0.0013,-0.51677 -0.0019,-0.77515 0,0 -3.51029,-1.74644 -3.51029,-1.74644 z" />
  </g>
</svg>
